<mxfile host="app.diagrams.net" modified="2024-02-12T07:45:36.433Z" agent="Mozilla/5.0 (Windows NT 10.0; Win64; x64) AppleWebKit/537.36 (KHTML, like Gecko) Chrome/121.0.0.0 Safari/537.36" etag="7DVthU7EZc9mSwBq_50M" version="23.1.2" type="device">
  <diagram name="Страница — 1" id="SZ1UzL97-htw13jAOPtu">
    <mxGraphModel dx="1195" dy="650" grid="0" gridSize="10" guides="1" tooltips="1" connect="1" arrows="1" fold="1" page="1" pageScale="1" pageWidth="827" pageHeight="1169" math="0" shadow="0">
      <root>
        <mxCell id="0" />
        <mxCell id="1" parent="0" />
        <mxCell id="2CayysPzpMlbXlZGeu04-1" value="Admin" style="shape=umlActor;verticalLabelPosition=bottom;verticalAlign=top;html=1;outlineConnect=0;" parent="1" vertex="1">
          <mxGeometry x="105" y="246" width="30" height="60" as="geometry" />
        </mxCell>
        <mxCell id="2CayysPzpMlbXlZGeu04-2" value="User" style="shape=umlActor;verticalLabelPosition=bottom;verticalAlign=top;html=1;outlineConnect=0;" parent="1" vertex="1">
          <mxGeometry x="116" y="415" width="30" height="60" as="geometry" />
        </mxCell>
        <mxCell id="2CayysPzpMlbXlZGeu04-3" value="Manager" style="shape=umlActor;verticalLabelPosition=bottom;verticalAlign=top;html=1;outlineConnect=0;" parent="1" vertex="1">
          <mxGeometry x="572" y="198" width="30" height="60" as="geometry" />
        </mxCell>
        <mxCell id="2CayysPzpMlbXlZGeu04-4" value="&lt;font style=&quot;font-size: 12px;&quot;&gt;Управление пользователями&amp;nbsp;&lt;/font&gt;" style="ellipse;whiteSpace=wrap;html=1;" parent="1" vertex="1">
          <mxGeometry x="290" y="87" width="140" height="90" as="geometry" />
        </mxCell>
        <mxCell id="2CayysPzpMlbXlZGeu04-5" value="Управление программным обеспечением&amp;nbsp;" style="ellipse;whiteSpace=wrap;html=1;" parent="1" vertex="1">
          <mxGeometry x="300" y="193" width="120" height="70" as="geometry" />
        </mxCell>
        <mxCell id="2CayysPzpMlbXlZGeu04-6" value="Управление &amp;nbsp;лицензиями&amp;nbsp;" style="ellipse;whiteSpace=wrap;html=1;" parent="1" vertex="1">
          <mxGeometry x="300" y="278" width="120" height="70" as="geometry" />
        </mxCell>
        <mxCell id="2CayysPzpMlbXlZGeu04-11" value="Доступ к своей записи" style="ellipse;whiteSpace=wrap;html=1;" parent="1" vertex="1">
          <mxGeometry x="300" y="442" width="120" height="70" as="geometry" />
        </mxCell>
        <mxCell id="2CayysPzpMlbXlZGeu04-12" value="Просмотр информации о ПО" style="ellipse;whiteSpace=wrap;html=1;" parent="1" vertex="1">
          <mxGeometry x="300" y="518" width="120" height="70" as="geometry" />
        </mxCell>
        <mxCell id="2CayysPzpMlbXlZGeu04-14" value="Получение лицензии" style="ellipse;whiteSpace=wrap;html=1;" parent="1" vertex="1">
          <mxGeometry x="300" y="361" width="120" height="70" as="geometry" />
        </mxCell>
        <mxCell id="Vp5nkVQ0lHX6HNucWxoL-4" value="&lt;font style=&quot;font-size: 11px;&quot;&gt;Редактировать информацию о&amp;nbsp;пользователях&lt;/font&gt;" style="ellipse;whiteSpace=wrap;html=1;" vertex="1" parent="1">
          <mxGeometry x="300" y="602" width="120" height="70" as="geometry" />
        </mxCell>
        <mxCell id="Vp5nkVQ0lHX6HNucWxoL-10" value="" style="endArrow=none;html=1;rounded=0;entryX=0.19;entryY=0.894;entryDx=0;entryDy=0;entryPerimeter=0;" edge="1" parent="1" source="2CayysPzpMlbXlZGeu04-1" target="2CayysPzpMlbXlZGeu04-4">
          <mxGeometry width="50" height="50" relative="1" as="geometry">
            <mxPoint x="283" y="416" as="sourcePoint" />
            <mxPoint x="333" y="366" as="targetPoint" />
          </mxGeometry>
        </mxCell>
        <mxCell id="Vp5nkVQ0lHX6HNucWxoL-11" value="" style="endArrow=none;html=1;rounded=0;exitX=1;exitY=0.3333333333333333;exitDx=0;exitDy=0;exitPerimeter=0;" edge="1" parent="1" source="2CayysPzpMlbXlZGeu04-1" target="2CayysPzpMlbXlZGeu04-5">
          <mxGeometry width="50" height="50" relative="1" as="geometry">
            <mxPoint x="283" y="416" as="sourcePoint" />
            <mxPoint x="333" y="366" as="targetPoint" />
          </mxGeometry>
        </mxCell>
        <mxCell id="Vp5nkVQ0lHX6HNucWxoL-12" value="" style="endArrow=none;html=1;rounded=0;exitX=1;exitY=0.3333333333333333;exitDx=0;exitDy=0;exitPerimeter=0;" edge="1" parent="1" source="2CayysPzpMlbXlZGeu04-1" target="2CayysPzpMlbXlZGeu04-6">
          <mxGeometry width="50" height="50" relative="1" as="geometry">
            <mxPoint x="193" y="272" as="sourcePoint" />
            <mxPoint x="333" y="366" as="targetPoint" />
          </mxGeometry>
        </mxCell>
        <mxCell id="Vp5nkVQ0lHX6HNucWxoL-14" value="" style="endArrow=none;html=1;rounded=0;exitX=1;exitY=0.3333333333333333;exitDx=0;exitDy=0;exitPerimeter=0;" edge="1" parent="1" source="2CayysPzpMlbXlZGeu04-2" target="2CayysPzpMlbXlZGeu04-11">
          <mxGeometry width="50" height="50" relative="1" as="geometry">
            <mxPoint x="188" y="413" as="sourcePoint" />
            <mxPoint x="258" y="443" as="targetPoint" />
          </mxGeometry>
        </mxCell>
        <mxCell id="Vp5nkVQ0lHX6HNucWxoL-16" value="" style="endArrow=none;html=1;rounded=0;entryX=0;entryY=0.39;entryDx=0;entryDy=0;entryPerimeter=0;exitX=1;exitY=0.3333333333333333;exitDx=0;exitDy=0;exitPerimeter=0;" edge="1" parent="1" source="2CayysPzpMlbXlZGeu04-2" target="2CayysPzpMlbXlZGeu04-14">
          <mxGeometry width="50" height="50" relative="1" as="geometry">
            <mxPoint x="185" y="409" as="sourcePoint" />
            <mxPoint x="333" y="366" as="targetPoint" />
          </mxGeometry>
        </mxCell>
        <mxCell id="Vp5nkVQ0lHX6HNucWxoL-17" value="" style="endArrow=none;html=1;rounded=0;entryX=0.104;entryY=0.136;entryDx=0;entryDy=0;entryPerimeter=0;" edge="1" parent="1" target="2CayysPzpMlbXlZGeu04-12">
          <mxGeometry width="50" height="50" relative="1" as="geometry">
            <mxPoint x="151" y="436" as="sourcePoint" />
            <mxPoint x="333" y="366" as="targetPoint" />
          </mxGeometry>
        </mxCell>
        <mxCell id="Vp5nkVQ0lHX6HNucWxoL-18" value="" style="endArrow=none;html=1;rounded=0;entryX=0.097;entryY=0.138;entryDx=0;entryDy=0;entryPerimeter=0;" edge="1" parent="1" target="Vp5nkVQ0lHX6HNucWxoL-4">
          <mxGeometry width="50" height="50" relative="1" as="geometry">
            <mxPoint x="152" y="437" as="sourcePoint" />
            <mxPoint x="333" y="366" as="targetPoint" />
          </mxGeometry>
        </mxCell>
        <mxCell id="Vp5nkVQ0lHX6HNucWxoL-19" value="" style="endArrow=none;html=1;rounded=0;exitX=1;exitY=0;exitDx=0;exitDy=0;entryX=0;entryY=0.3333333333333333;entryDx=0;entryDy=0;entryPerimeter=0;" edge="1" parent="1" source="2CayysPzpMlbXlZGeu04-6" target="2CayysPzpMlbXlZGeu04-3">
          <mxGeometry width="50" height="50" relative="1" as="geometry">
            <mxPoint x="283" y="416" as="sourcePoint" />
            <mxPoint x="525" y="198" as="targetPoint" />
          </mxGeometry>
        </mxCell>
        <mxCell id="Vp5nkVQ0lHX6HNucWxoL-20" value="" style="endArrow=none;html=1;rounded=0;" edge="1" parent="1" source="2CayysPzpMlbXlZGeu04-5">
          <mxGeometry width="50" height="50" relative="1" as="geometry">
            <mxPoint x="283" y="416" as="sourcePoint" />
            <mxPoint x="570" y="218" as="targetPoint" />
          </mxGeometry>
        </mxCell>
        <mxCell id="Vp5nkVQ0lHX6HNucWxoL-22" value="Удаление пользователей" style="ellipse;whiteSpace=wrap;html=1;" vertex="1" parent="1">
          <mxGeometry x="149" y="42" width="120" height="80" as="geometry" />
        </mxCell>
        <mxCell id="Vp5nkVQ0lHX6HNucWxoL-23" value="Изменение информации о пользователях" style="ellipse;whiteSpace=wrap;html=1;" vertex="1" parent="1">
          <mxGeometry x="467" y="42" width="120" height="80" as="geometry" />
        </mxCell>
        <mxCell id="Vp5nkVQ0lHX6HNucWxoL-24" value="" style="endArrow=classic;html=1;rounded=0;exitX=0.99;exitY=0.643;exitDx=0;exitDy=0;exitPerimeter=0;endFill=1;dashed=1;dashPattern=8 8;entryX=-0.001;entryY=0.35;entryDx=0;entryDy=0;entryPerimeter=0;" edge="1" parent="1" source="Vp5nkVQ0lHX6HNucWxoL-22" target="2CayysPzpMlbXlZGeu04-4">
          <mxGeometry width="50" height="50" relative="1" as="geometry">
            <mxPoint x="315" y="187" as="sourcePoint" />
            <mxPoint x="317" y="94" as="targetPoint" />
          </mxGeometry>
        </mxCell>
        <mxCell id="Vp5nkVQ0lHX6HNucWxoL-25" value="" style="endArrow=classic;html=1;rounded=0;exitX=0;exitY=0.5;exitDx=0;exitDy=0;endFill=1;dashed=1;dashPattern=8 8;entryX=0.993;entryY=0.367;entryDx=0;entryDy=0;entryPerimeter=0;" edge="1" parent="1" source="Vp5nkVQ0lHX6HNucWxoL-23" target="2CayysPzpMlbXlZGeu04-4">
          <mxGeometry width="50" height="50" relative="1" as="geometry">
            <mxPoint x="315" y="187" as="sourcePoint" />
            <mxPoint x="358" y="86" as="targetPoint" />
          </mxGeometry>
        </mxCell>
        <mxCell id="Vp5nkVQ0lHX6HNucWxoL-28" value="&amp;lt;extend&amp;gt;" style="text;html=1;strokeColor=none;fillColor=none;align=center;verticalAlign=middle;whiteSpace=wrap;rounded=0;" vertex="1" parent="1">
          <mxGeometry x="266" y="74" width="60" height="30" as="geometry" />
        </mxCell>
        <mxCell id="Vp5nkVQ0lHX6HNucWxoL-29" value="&amp;lt;extend&amp;gt;" style="text;html=1;strokeColor=none;fillColor=none;align=center;verticalAlign=middle;whiteSpace=wrap;rounded=0;" vertex="1" parent="1">
          <mxGeometry x="396" y="67" width="60" height="30" as="geometry" />
        </mxCell>
      </root>
    </mxGraphModel>
  </diagram>
</mxfile>
